<svg height="512" viewBox="0 0 64 64" width="512" xmlns="http://www.w3.org/2000/svg"><path d="m38 3a16 16 0 0 0 -16 16v35.828a4.116 4.116 0 0 0 3.607 4.153 4 4 0 0 0 4.393-3.981v-4a4 4 0 0 0 8 0v5.828a4.116 4.116 0 0 0 3.607 4.153 4 4 0 0 0 4.393-3.981v-4a4 4 0 0 0 4.393 3.981 4.116 4.116 0 0 0 3.607-4.153v-33.828a16 16 0 0 0 -16-16z" fill="#7fcac9"/><path d="m18 19h-5a1 1 0 0 1 -.707-1.707l3.293-3.293h-2.586a1 1 0 0 1 0-2h5a1 1 0 0 1 .707 1.707l-3.293 3.293h2.586a1 1 0 0 1 0 2z" fill="#fcf05a"/><path d="m15 10h-6a1 1 0 0 1 -.707-1.707l4.293-4.293h-3.586a1 1 0 0 1 0-2h6a1 1 0 0 1 .707 1.707l-4.293 4.293h3.586a1 1 0 0 1 0 2z" fill="#fcf05a"/><path d="m31 25a6.006 6.006 0 0 1 -6-6h2a4 4 0 0 0 8 0h2a6.006 6.006 0 0 1 -6 6z" fill="#394d5c"/><path d="m45 25a6.006 6.006 0 0 1 -6-6h2a4 4 0 0 0 8 0h2a6.006 6.006 0 0 1 -6 6z" fill="#394d5c"/><path d="m38 28a5 5 0 0 1 5 5v5a0 0 0 0 1 0 0h-10a0 0 0 0 1 0 0v-5a5 5 0 0 1 5-5z" fill="#f4f4e6"/><path d="m33 34h10v4h-10z" fill="#db527d"/><g fill="#f4f4e6"><path d="m49 47h2v6h-2z"/><path d="m25 40h2v8h-2z"/><path d="m25 50h2v2h-2z"/><path d="m47.105 13.447c-2.692-5.385-9.041-5.447-9.105-5.447v-2c.311 0 7.655.074 10.9 6.553z"/></g></svg>