<svg width="2694" height="1162" viewBox="0 0 2694 1162" fill="none" xmlns="http://www.w3.org/2000/svg">
<path d="M1947.37 1146.28L1937.69 1160.94L1923.25 1151.42L1932.93 1136.75L1947.37 1146.28Z" fill="#D63E4F"/>
<path d="M2201.35 87.6433L2266.36 50.7118L2302.72 114.702L2237.71 151.634L2201.35 87.6433Z" fill="#D63E4F"/>
<path d="M1603.75 114.802L1647.14 90.1508L1671.4 132.863L1628.01 157.513L1603.75 114.802Z" fill="#D63E4F"/>
<path d="M2208.64 1016.34L2190.15 1044.37L2162.11 1025.88L2180.6 997.847L2208.64 1016.34Z" fill="#D63E4F"/>
<path d="M2033.23 1055.08L2027.15 1066.23L2016 1060.15L2022.08 1049L2033.23 1055.08Z" fill="#D63E4F"/>
<path d="M2076.24 115.731L2140.23 79.377L2176.58 143.368L2112.59 179.722L2076.24 115.731Z" fill="#D63E4F"/>
<path d="M1823 108.862L1872.04 80.9999L1899.9 130.042L1850.86 157.903L1823 108.862Z" fill="#D63E4F"/>
<path d="M1608 52.2656L1650.71 28.0001L1674.98 70.712L1632.27 94.9775L1608 52.2656Z" fill="#D63E4F"/>
<path d="M1934.71 1127.05L1929.66 1134.71L1922 1129.66L1927.05 1122L1934.71 1127.05Z" fill="#FFEE8C"/>
<path d="M2193.41 135.15L2257.4 98.7959L2293.76 162.787L2229.77 199.141L2193.41 135.15Z" fill="#FFEE8C"/>
<path d="M1874 102.862L1923.04 74.9999L1950.9 124.042L1901.86 151.903L1874 102.862Z" fill="#FFEE8C"/>
<path d="M1962.96 1118.52L1953.44 1132.96L1939 1123.44L1948.52 1109L1962.96 1118.52Z" fill="#ADD46E"/>
<path d="M1665.81 88.9641L1708.52 64.6986L1732.79 107.41L1690.08 131.676L1665.81 88.9641Z" fill="#ADD46E"/>
<path d="M2244.9 149.432L2332.75 99.5915L2382.1 186.568L2294.25 236.408L2244.9 149.432Z" fill="#D63E4F"/>
<path d="M1434 77H1482V125H1434V77Z" fill="#D63E4F"/>
<path d="M1350 20.821L1395.97 7.00012L1409.79 52.9673L1363.82 66.7882L1350 20.821Z" fill="#D63E4F"/>
<path d="M2153.5 161.228L2083.19 192.46L2052.44 123.25L2122.75 92.018L2153.5 161.228Z" fill="#D63E4F"/>
<path d="M2262.18 791H2309.18V839H2262.18V791Z" fill="#FCBB2A"/>
<path d="M2089 990H2109V1010H2089V990Z" fill="#FCBB2A"/>
<path d="M1678.08 63.8545L1706.22 104.881L1665.19 133.014L1637.06 91.9882L1678.08 63.8545Z" fill="#FCBB2A"/>
<path d="M2228.19 1005.71L2216.29 1020.23L2202 1008.52L2213.9 994L2228.19 1005.71Z" fill="#FCBB2A"/>
<path d="M2290.03 800.979L2250.39 761.424L2289.33 722.406L2328.97 761.961L2290.03 800.979Z" fill="#FCBB2A"/>
<path d="M1728.56 111.52L1737.66 62.4527L1785.96 71.4047L1776.86 120.472L1728.56 111.52Z" fill="#FCBB2A"/>
<path d="M2380 492.691H2478V587.691H2380V492.691Z" fill="#FCBB2A"/>
<path d="M2268.18 847H2316.18V895H2268.18V847Z" fill="#FCBB2A"/>
<path d="M2014.09 1086L2027.37 1086.09L2027.27 1099.16L2014 1099.07L2014.09 1086Z" fill="#FCBB2A"/>
<path d="M2010.27 1063.8L1999.63 1071.73L1991.82 1061.25L2002.47 1053.32L2010.27 1063.8Z" fill="#FCBB2A"/>
<path d="M2167 184.574L2234.13 147L2271.12 213.085L2203.99 250.658L2167 184.574Z" fill="#FCBB2A"/>
<path d="M1499 18.1567L1547.68 14L1551.78 61.9227L1503.09 66.0794L1499 18.1567Z" fill="#FCBB2A"/>
<path d="M2334 172H2452V284H2334V172Z" fill="#2A3159"/>
<path d="M2251.18 824H2298.18V871H2251.18V824Z" fill="#2A3159"/>
<path d="M2490.14 606.036L2428.06 681.781L2353.49 620.663L2415.58 544.917L2490.14 606.036Z" fill="#2A3159"/>
<path d="M2389.76 929.369L2355.92 895.603L2389.16 862.295L2423 896.062L2389.76 929.369Z" fill="#2A3159"/>
<path d="M2349.34 7.72461L2401.33 70.0369L2339.99 121.218L2288 58.9052L2349.34 7.72461Z" fill="#2A3159"/>
<path d="M2486.41 750.575H2547.41V811.575H2486.41V750.575Z" fill="#2A3159"/>
<path d="M2431 746H2467V782H2431V746Z" fill="#2A3159"/>
<path d="M2240.27 971H2276.27V1007H2240.27V971Z" fill="#2A3159"/>
<path d="M2045.51 1111.78L2034 1104.51L2041.27 1093L2052.78 1100.27L2045.51 1111.78Z" fill="#2A3159"/>
<path d="M2163.27 944H2199.27V980H2163.27V944Z" fill="#2A3159"/>
<path d="M1599.27 141.324L1553.51 118.018L1576.45 72.9762L1622.21 96.2826L1599.27 141.324Z" fill="#2A3159"/>
<path d="M2237.56 893.628L2206.2 913.129L2187 882.256L2218.36 862.755L2237.56 893.628Z" fill="#2A3159"/>
<path d="M2264.56 974.628L2233.2 994.129L2214 963.256L2245.36 943.755L2264.56 974.628Z" fill="#2A3159"/>
<path d="M2182.56 925.873L2151.2 945.374L2132 914.501L2163.36 895L2182.56 925.873Z" fill="#D63E4F"/>
<path d="M1370 65.1567L1418.68 61L1422.78 108.923L1374.09 113.079L1370 65.1567Z" fill="#2A3159"/>
<path d="M2485.92 876.639L2447.11 923.989L2399.76 885.177L2438.57 837.827L2485.92 876.639Z" fill="#FCBB2A"/>
<path d="M2330.6 926.262L2297.3 893.023L2330.54 859.715L2363.84 892.954L2330.6 926.262Z" fill="#FCBB2A"/>
<path d="M2543.41 698.575H2605.41V760.575H2543.41V698.575Z" fill="#FCBB2A"/>
<path d="M2141 1034H2157V1050H2141V1034Z" fill="#FCBB2A"/>
<path d="M2040.77 1019.91L2059.23 1018.35L2060.76 1036.44L2042.3 1038L2040.77 1019.91Z" fill="#FCBB2A"/>
<path d="M2185 909H2234V957H2185V909Z" fill="#FCBB2A"/>
<path d="M2080.66 1072.24L2065 1062.34L2074.69 1047L2090.36 1056.9L2080.66 1072.24Z" fill="#FCBB2A"/>
<path d="M1273.16 83.5886L1246.88 70.2022L1260.26 43.9209L1286.55 57.3073L1273.16 83.5886Z" fill="#FCBB2A"/>
<path d="M1232.28 39.6677L1206 26.2813L1219.39 -2.67522e-05L1245.67 13.3864L1232.28 39.6677Z" fill="#FCBB2A"/>
<path d="M919.6 44.5725L935.782 58.1718L922.182 74.354L906 60.7546L919.6 44.5725Z" fill="#FCBB2A"/>
<path d="M566.994 40L574.126 45.9939L568.133 53.1263L561 47.1323L566.994 40Z" fill="#FCBB2A"/>
<path d="M3.50879 17.7817L-0.000187247 13.509L4.27252 10.0001L7.7815 14.2728L3.50879 17.7817Z" fill="#FCBB2A"/>
<path d="M1929 60.9375L1986.83 55.9999L1991.77 113.829L1933.94 118.767L1929 60.9375Z" fill="#FCBB2A"/>
<path d="M1492.45 86L1537.23 109.448L1513.78 154.229L1469 130.781L1492.45 86Z" fill="#FCBB2A"/>
<path d="M2301 887H2348V934H2301V887Z" fill="#7FCAC9"/>
<path d="M2464.71 812.463L2429.76 855.093L2387.13 820.149L2422.08 777.519L2464.71 812.463Z" fill="#7FCAC9"/>
<path d="M2533.41 733.575H2593.41V795.575H2533.41V733.575Z" fill="#7FCAC9"/>
<path d="M1912.72 194.059L1861 167.717L1887.34 116L1939.06 142.342L1912.72 194.059Z" fill="#7FCAC9"/>
<path d="M1559.12 135.284L1514.08 112.341L1537.02 67.2996L1582.06 90.2418L1559.12 135.284Z" fill="#7FCAC9"/>
<path d="M2213.59 1012.35L2184.24 1030.59L2165.99 1001.25L2195.34 983L2213.59 1012.35Z" fill="#7FCAC9"/>
<path d="M2137.4 65.8582L2212.86 59.4155L2219.3 134.872L2143.84 141.315L2137.4 65.8582Z" fill="#7FCAC9"/>
<path d="M1422.35 29.7717L1470.27 25.68L1474.36 73.6026L1426.44 77.6944L1422.35 29.7717Z" fill="#7FCAC9"/>
<path d="M1662 126.3L1712.36 122L1716.67 172.365L1666.3 176.665L1662 126.3Z" fill="#7FCAC9"/>
<path d="M2332 899H2380V946H2332V899Z" fill="#3A7A13"/>
<path d="M2429.91 831.454L2394.96 874.084L2352.33 839.14L2387.28 796.51L2429.91 831.454Z" fill="#3A7A13"/>
<path d="M1721 175.301L1729.95 127L1778.25 135.952L1769.3 184.253L1721 175.301Z" fill="#3A7A13"/>
<path d="M2298.27 885H2329.27V916H2298.27V885Z" fill="#3A7A13"/>
<path d="M1888.72 85.0593L1837 58.717L1863.34 6.99988L1915.06 33.3422L1888.72 85.0593Z" fill="#3A7A13"/>
<path d="M1712.04 75.9841L1667 53.0419L1689.94 8.00002L1734.98 30.9422L1712.04 75.9841Z" fill="#3A7A13"/>
<path d="M2189.1 1016.59L2159.75 1034.84L2141.51 1005.49L2170.85 987.246L2189.1 1016.59Z" fill="#3A7A13"/>
<path d="M1455.4 39.9749L1503.32 35.8831L1507.42 83.8058L1459.49 87.8975L1455.4 39.9749Z" fill="#3A7A13"/>
<path d="M2505.77 670.818L2504.2 732.022L2443 730.458L2444.57 669.253L2505.77 670.818Z" fill="#3A7A13"/>
<path d="M2173 831H2209V868H2173V831Z" fill="#3A7A13"/>
<path d="M2272 924H2308V961H2272V924Z" fill="#3A7A13"/>
<path d="M2111 938H2147V975H2111V938Z" fill="#3A7A13"/>
<path d="M2047.51 1086.1L2036 1078.83L2043.47 1067L2054.98 1074.27L2047.51 1086.1Z" fill="#3A7A13"/>
<path d="M1959.1 1095L1972.84 1095.1L1972.75 1108.84L1959 1108.75L1959.1 1095Z" fill="#3A7A13"/>
<path d="M2296.07 995.804L2265.2 1015L2246 984.127L2276.88 964.931L2296.07 995.804Z" fill="#3A7A13"/>
<path d="M1988.44 1101.52L2002.19 1101.62L2002.09 1115.37L1988.34 1115.27L1988.44 1101.52Z" fill="#ADD46E"/>
<path d="M1545.26 74.9192L1595.63 70.6189L1599.93 120.984L1549.56 125.284L1545.26 74.9192Z" fill="#3A7A13"/>
<path d="M2651.77 698.565L2650.2 759.769L2589 758.204L2590.57 697L2651.77 698.565Z" fill="#D63E4F"/>
<path d="M1118.95 49L1143 51.9471L1140.05 75.9994L1116 73.0524L1118.95 49Z" fill="#D63E4F"/>
<path d="M862.947 3L887 5.94706L884.053 29.9994L860 27.0524L862.947 3Z" fill="#D63E4F"/>
<path d="M1093.15 79.1685L1076.83 73.2183L1082.78 56.9028L1099.1 62.853L1093.15 79.1685Z" fill="#D63E4F"/>
<path d="M749.437 23.2432L739 19.4369L742.806 9.00007L753.243 12.8063L749.437 23.2432Z" fill="#D63E4F"/>
<path d="M2353 107H2455V207H2353V107Z" fill="#FFEE8C"/>
<path d="M2262.18 801H2310.18V847H2262.18V801Z" fill="#FFEE8C"/>
<path d="M2365.47 937.845L2331.64 904.079L2364.88 870.771L2398.71 904.537L2365.47 937.845Z" fill="#FFEE8C"/>
<path d="M1344.02 68.0339L1300.48 45.8577L1322.31 2.99992L1365.85 25.1762L1344.02 68.0339Z" fill="#FFEE8C"/>
<path d="M1577.25 158.025L1531.5 134.719L1554.44 89.6769L1600.2 112.983L1577.25 158.025Z" fill="#FFEE8C"/>
<path d="M1966.51 1152.11L1951.4 1161.51L1942 1146.4L1957.11 1137L1966.51 1152.11Z" fill="#FFEE8C"/>
<path d="M2105.6 57.0195L2181.06 50.5768L2187.5 126.033L2112.05 132.476L2105.6 57.0195Z" fill="#FFEE8C"/>
<path d="M1586 8.30029L1636.36 4L1640.67 54.3649L1590.3 58.6652L1586 8.30029Z" fill="#FFEE8C"/>
<path d="M2592.57 776.304L2591.01 837.508L2529.8 835.944L2531.37 774.739L2592.57 776.304Z" fill="#FFEE8C"/>
<path d="M2268.24 793.86L2267.04 840.9L2220 839.698L2221.2 792.658L2268.24 793.86Z" fill="#ADD46E"/>
<path d="M2071.17 1034.4L2070.77 1050.17L2055 1049.77L2055.4 1034L2071.17 1034.4Z" fill="#ADD46E"/>
<path d="M1543.43 89.4976L1541 40.4344L1590.06 38L1592.5 87.0631L1543.43 89.4976Z" fill="#ADD46E"/>
<path d="M1401.84 59.6694L1424.11 18.5754L1465.2 40.8474L1442.93 81.9414L1401.84 59.6694Z" fill="#ADD46E"/>
<path d="M2596.28 244L2694 361.761L2576.24 459.483L2478.52 341.723L2596.28 244Z" fill="#FFEE8C"/>
<path d="M2043.11 5.70898L2117.42 13.949L2109.31 87.0972L2035 78.8572L2043.11 5.70898Z" fill="#D63E4F"/>
<path d="M1170.84 64.135L1193.93 70.3746L1187.79 93.1087L1164.69 86.8692L1170.84 64.135Z" fill="#D63E4F"/>
<path d="M1072.9 84.1736L1067 60.9896L1089.82 55.1814L1095.72 78.3653L1072.9 84.1736Z" fill="#D63E4F"/>
<path d="M1008.09 68.6602L992.979 60.5662L1000.95 45.6881L1016.06 53.7821L1008.09 68.6602Z" fill="#D63E4F"/>
<path d="M512.668 25.6951L503 20.5175L508.096 11.0001L517.765 16.1777L512.668 25.6951Z" fill="#D63E4F"/>
<path d="M33.6455 32.0366L38.7228 36.109L34.7141 41.107L29.6368 37.0346L33.6455 32.0366Z" fill="#D63E4F"/>
<path d="M1939.75 120L2001.57 126.855L1994.82 187.706L1933 180.851L1939.75 120Z" fill="#2A3159"/>
<path d="M1290.91 63.3994L1317.57 66.3559L1314.66 92.601L1288 89.6445L1290.91 63.3994Z" fill="#2A3159"/>
<path d="M2015.34 110L2081.51 117.338L2074.18 183.515L2008 176.177L2015.34 110Z" fill="#FCBB2A"/>
<path d="M1319.21 30.4841L1365.66 35.6356L1360.51 82.0923L1314.05 76.9408L1319.21 30.4841Z" fill="#7FCAC9"/>
<path d="M2339.99 8L2439.52 19.0365L2428.48 118.564L2328.96 107.528L2339.99 8Z" fill="#3A7A13"/>
<path d="M1243.76 48.6802L1272.25 51.8392L1269.09 80.3274L1240.6 77.1684L1243.76 48.6802Z" fill="#3A7A13"/>
<path d="M2012.62 6L2078.2 51.6248L2032.58 117.201L1967 71.5764L2012.62 6Z" fill="#3A7A13"/>
<path d="M1190.9 65.291L1213.63 71.4331L1207.49 94.1672L1184.76 88.0252L1190.9 65.291Z" fill="#3A7A13"/>
<path d="M1090.09 42.6299L1084.28 19.8081L1107.11 13.9999L1112.91 36.8216L1090.09 42.6299Z" fill="#3A7A13"/>
<path d="M2140.16 3.26367L2213.31 11.375L2205.2 84.5232L2132.05 76.4119L2140.16 3.26367Z" fill="#D63E4F"/>
<path d="M1887.73 3.2019L1943.79 9.41831L1937.57 65.4783L1881.51 59.2619L1887.73 3.2019Z" fill="#D63E4F"/>
<path d="M1786.75 100L1848.57 106.855L1841.82 167.706L1780 160.851L1786.75 100Z" fill="#FFEE8C"/>
<path d="M1998.57 75L2057.78 81.5662L2051.21 140.781L1992 134.214L1998.57 75Z" fill="#FFEE8C"/>
<path d="M1213.62 55.8193L1246.29 59.4416L1242.67 92.1078L1210 88.4855L1213.62 55.8193Z" fill="#FFEE8C"/>
<path d="M1156.62 16L1189.29 19.6223L1185.67 52.2885L1153 48.6662L1156.62 16Z" fill="#FFEE8C"/>
<path d="M986.877 57.0356L964.657 49.2199L972.473 26.9999L994.693 34.8156L986.877 57.0356Z" fill="#FFEE8C"/>
<path d="M643.794 29.2383L634 25.7935L637.445 15.9999L647.239 19.4447L643.794 29.2383Z" fill="#FFEE8C"/>
<path d="M838.214 53.2136L824 48.214L829 34.0001L843.213 38.9997L838.214 53.2136Z" fill="#FFEE8C"/>
<path d="M276.265 24.4685L270 22.2649L272.203 16.0001L278.468 18.2037L276.265 24.4685Z" fill="#FFEE8C"/>
<path d="M171.431 58.468L174.846 60.4351L172.879 63.8503L169.464 61.8832L171.431 58.468Z" fill="#FFEE8C"/>
<path d="M2215.63 3L2289.22 3.82607L2288.39 77.418L2214.8 76.5919L2215.63 3Z" fill="#ADD46E"/>
<path d="M1945.56 3L2001.96 3.63309L2001.33 60.0332L1944.93 59.4001L1945.56 3Z" fill="#ADD46E"/>
<path d="M2433.49 672.238L2406.84 721.484L2358.36 695.246L2385.02 646L2433.49 672.238Z" fill="#D63E4F"/>
<path d="M2112.66 969.056L2101.43 989.807L2081 978.751L2092.23 958L2112.66 969.056Z" fill="#D63E4F"/>
<path d="M2301.35 752.844L2274.7 802.09L2226.22 775.852L2252.87 726.606L2301.35 752.844Z" fill="#FCBB2A"/>
<path d="M2371.69 672.52L2345.03 721.767L2296.56 695.529L2323.21 646.283L2371.69 672.52Z" fill="#2A3159"/>
<path d="M1856.9 87.093L1799.91 93.0988L1794 37.0059L1850.98 31.0001L1856.9 87.093Z" fill="#2A3159"/>
<path d="M2387.9 739.993L2361.66 788.47L2313.18 762.232L2339.42 713.755L2387.9 739.993Z" fill="#FCBB2A"/>
<path d="M2541.71 842.238L2515.48 890.715L2467 864.477L2493.24 816L2541.71 842.238Z" fill="#7FCAC9"/>
<path d="M2333.43 741.357L2307.2 789.834L2258.72 763.596L2284.96 715.119L2333.43 741.357Z" fill="#3A7A13"/>
<path d="M1816.28 94.7861L1760.18 100.698L1754.27 44.6052L1810.37 38.6932L1816.28 94.7861Z" fill="#3A7A13"/>
<path d="M2532.68 408.891L2486.79 493.679L2402 447.788L2447.89 363L2532.68 408.891Z" fill="#D63E4F"/>
<path d="M2414.9 652.804L2385.76 706.648L2331.91 677.506L2361.06 623.662L2414.9 652.804Z" fill="#FFEE8C"/>
<path d="M2143.97 1029.28L2131.69 1051.97L2109 1039.69L2121.28 1017L2143.97 1029.28Z" fill="#FFEE8C"/>
<path d="M2523.99 622.142L2494.84 675.986L2441 646.844L2470.14 593L2523.99 622.142Z" fill="#ADD46E"/>
<path d="M2471.57 108.669L2369.84 108.136L2370.37 7.99991L2472.09 8.53224L2471.57 108.669Z" fill="#FCBB2A"/>
<path d="M2523.96 244L2423.82 243.476L2424.34 143.34L2524.48 143.864L2523.96 244Z" fill="#3A7A13"/>
<path d="M2634.22 288.849L2553.98 234.023L2608.81 153.788L2689.04 208.613L2634.22 288.849Z" fill="#D63E4F"/>
<path d="M2575.58 96.1694L2486.02 144.397L2438.54 56.2278L2528.11 8.00024L2575.58 96.1694Z" fill="#FFEE8C"/>
<path d="M2579.65 138.061L2499.42 83.2358L2554.24 3.00045L2634.48 57.8259L2579.65 138.061Z" fill="#FFEE8C"/>
<path d="M2628.74 370.227L2625.83 468.125L2529.46 465.256L2532.37 367.359L2628.74 370.227Z" fill="#D63E4F"/>
<path d="M2586.05 666.291L2584.2 728.459L2523 726.638L2524.85 664.469L2586.05 666.291Z" fill="#FCBB2A"/>
<path d="M2578.23 472.832L2575.31 570.73L2478.94 567.861L2481.86 469.964L2578.23 472.832Z" fill="#2A3159"/>
<path d="M2662.24 540.868L2659.37 637.236L2563 634.368L2565.87 538L2662.24 540.868Z" fill="#FCBB2A"/>
<path d="M2612.14 638.873L2610.32 700.07L2549.12 698.248L2550.94 637.051L2612.14 638.873Z" fill="#3A7A13"/>
<path d="M2671.23 434.263L2668.36 530.631L2572 527.763L2574.87 431.395L2671.23 434.263Z" fill="#3A7A13"/>
<path d="M2624.96 497.188L2622.05 595.086L2525.68 592.218L2528.6 494.32L2624.96 497.188Z" fill="#FFEE8C"/>
<path d="M2690.02 636.075L2688.2 697.272L2627 695.45L2628.82 634.253L2690.02 636.075Z" fill="#FFEE8C"/>
<path d="M2656.66 306.756L2653.79 403.124L2557.42 400.256L2560.29 303.888L2656.66 306.756Z" fill="#ADD46E"/>
<path d="M2301 776.314H2357V831.314H2301V776.314Z" fill="#D63E4F"/>
<path d="M2100 1023H2123V1046H2100V1023Z" fill="#2A3159"/>
<path d="M2192 960H2216V983H2192V960Z" fill="#FFEE8C"/>
<path d="M2391 689.314H2446V744.314H2391V689.314Z" fill="#ADD46E"/>
<path d="M2060 987H2083V1010H2060V987Z" fill="#ADD46E"/>
<path d="M1800.2 5.76367L1832.1 52.2805L1785.58 84.1796L1753.69 37.6628L1800.2 5.76367Z" fill="#ADD46E"/>
<path d="M2673.88 283.758L2673.17 380.166L2576.76 379.454L2577.47 283.046L2673.88 283.758Z" fill="#FCBB2A"/>
<path d="M2617.39 266.507L2616.67 362.915L2520.27 362.203L2520.98 265.795L2617.39 266.507Z" fill="#7FCAC9"/>
<path d="M2691.54 356.664L2690.83 453.072L2594.42 452.36L2595.13 355.952L2691.54 356.664Z" fill="#FFEE8C"/>
<path d="M2616.15 213.13L2615.02 366.153L2462 365.023L2463.13 212L2616.15 213.13Z" fill="#ADD46E"/>
<path d="M2578.9 305.429L2579.75 206.713L2676.92 207.544L2676.08 306.261L2578.9 305.429Z" fill="#2A3159"/>
<path d="M2557.16 162.077L2557.99 64.9025L2655.16 65.7341L2654.33 162.908L2557.16 162.077Z" fill="#7FCAC9"/>
<path d="M2592.08 100.174L2592.91 2.99996L2690.08 3.83148L2689.25 101.006L2592.08 100.174Z" fill="#3A7A13"/>
<path d="M2531.29 281.883L2532.13 183.166L2629.31 183.998L2628.46 282.715L2531.29 281.883Z" fill="#FFEE8C"/>
<path d="M2207.93 159.407L2138.72 190.151L2107.98 120.942L2177.19 90.1972L2207.93 159.407Z" fill="#ADD46E"/>
<path d="M1139.25 64.6445L1163.31 67.5916L1160.36 91.6439L1136.31 88.6969L1139.25 64.6445Z" fill="#ADD46E"/>
<path d="M781.947 24L806 26.9471L803.053 50.9994L779 48.0524L781.947 24Z" fill="#ADD46E"/>
<path d="M688.299 34L698.9 35.2989L697.601 45.9001L687 44.6011L688.299 34Z" fill="#ADD46E"/>
<path d="M1044.11 71.8691L1027.79 65.9189L1033.74 49.6035L1050.06 55.5537L1044.11 71.8691Z" fill="#ADD46E"/>
<path d="M370.191 30.8137L363 28.1912L365.623 21.0001L372.814 23.6226L370.191 30.8137Z" fill="#ADD46E"/>
<path d="M117.324 44.5491L121.234 46.8613L118.922 50.7713L115.012 48.4591L117.324 44.5491Z" fill="#ADD46E"/>
<path d="M940.437 37.2432L930 33.4369L933.806 23.0001L944.243 26.8063L940.437 37.2432Z" fill="#ADD46E"/>
<path d="M454.6 49.2776L450 47.6L451.677 42.9999L456.277 44.6775L454.6 49.2776Z" fill="#ADD46E"/>
<path d="M70.0879 24.5952L72.5891 26.0743L71.11 28.5755L68.6088 27.0964L70.0879 24.5952Z" fill="#ADD46E"/>
<path d="M1284.9 97.8904L1256.24 97.8233L1256.31 69.1606L1284.97 69.2276L1284.9 97.8904Z" fill="#FFEE8C"/>
</svg>
